<?xml version="1.0" standalone="no"?>
<!DOCTYPE svg PUBLIC "-//W3C//DTD SVG 20010904//EN"
 "http://www.w3.org/TR/2001/REC-SVG-20010904/DTD/svg10.dtd">
<svg version="1.0" xmlns="http://www.w3.org/2000/svg"
 width="230.000000pt" height="200.000000pt" viewBox="0 0 530.000000 528.000000"
 preserveAspectRatio="xMidYMid meet">

<g transform="translate(0.000000,528.000000) scale(0.100000,-0.100000)"
fill="#056e1c" stroke="none">
<path d="M2440 4273 c-71 -8 -207 -35 -285 -57 -279 -81 -507 -217 -721 -430
-252 -253 -401 -533 -469 -886 -23 -117 -31 -361 -16 -489 58 -493 329 -935
746 -1216 161 -108 415 -210 630 -252 140 -28 474 -25 614 5 341 74 608 213
843 440 256 247 411 530 490 893 19 89 22 135 22 314 1 235 -9 308 -70 505
-149 482 -511 872 -990 1065 -102 41 -298 91 -414 105 -79 9 -303 11 -380 3z
m370 -47 c277 -33 562 -145 776 -303 112 -83 291 -264 366 -368 359 -506 404
-1164 116 -1715 -84 -161 -155 -257 -293 -395 -138 -138 -234 -209 -395 -293
-199 -104 -396 -162 -622 -183 -375 -35 -778 76 -1093 299 -104 75 -285 254
-368 366 -225 305 -341 718 -308 1099 19 227 74 416 183 628 74 145 164 266
292 395 222 221 463 357 771 434 192 48 375 60 575 36z"/>
<path d="M2500 4191 c0 -23 14 -41 31 -41 14 0 19 7 19 25 0 20 -5 25 -25 25
-14 0 -25 -4 -25 -9z"/>
<path d="M2391 4181 c-12 -8 -12 -23 -2 -98 21 -153 21 -153 47 -153 22 0 24
3 18 38 -3 20 -11 77 -17 126 -12 89 -20 104 -46 87z"/>
<path d="M2653 4177 c-13 -5 -23 -18 -23 -29 0 -10 -4 -18 -10 -18 -5 0 -10
-9 -10 -20 0 -11 4 -20 10 -20 5 0 10 -33 12 -72 l3 -73 38 -3 c32 -3 37 0 37
17 0 12 -7 21 -15 21 -12 0 -15 13 -15 55 0 42 3 55 15 55 8 0 15 9 15 20 0
11 -6 20 -14 20 -9 0 -16 12 -18 29 -3 25 -5 27 -25 18z"/>
<path d="M2272 4162 c-16 -3 -22 -8 -18 -19 3 -8 6 -18 6 -22 0 -5 11 -6 25
-3 41 7 28 50 -13 44z"/>
<path d="M2121 4113 l-33 -14 7 -87 7 -87 -51 68 c-29 37 -56 67 -61 67 -19 0
-60 -24 -59 -34 2 -23 85 -220 94 -223 6 -1 16 1 24 6 12 8 9 22 -17 87 -18
42 -31 79 -29 81 2 1 27 -31 56 -72 49 -71 53 -74 76 -63 16 7 24 17 21 27 -8
27 -19 151 -13 151 3 0 17 -34 32 -75 25 -67 30 -75 49 -69 12 4 22 8 24 9 2
2 -87 238 -92 241 0 1 -16 -5 -35 -13z"/>
<path d="M2517 4123 c-9 -8 -9 -76 -1 -137 6 -41 10 -46 32 -46 22 0 24 3 18
31 -3 17 -6 60 -6 95 0 55 -2 64 -18 64 -10 0 -22 -3 -25 -7z"/>
<path d="M2780 4095 c-19 -23 -2 -36 39 -29 25 4 41 2 46 -6 10 -16 -12 -30
-48 -30 -47 0 -67 -17 -67 -54 0 -28 5 -36 30 -46 16 -7 41 -9 54 -6 14 3 28
2 31 -4 3 -5 14 -10 24 -10 15 0 19 12 25 83 6 76 5 83 -15 100 -26 21 -102
23 -119 2z m65 -131 c-22 -16 -45 -7 -45 16 0 13 9 20 28 22 32 4 43 -19 17
-38z"/>
<path d="M2288 4093 c-22 -5 -22 -9 0 -103 15 -63 21 -75 40 -78 13 -2 22 2
22 10 0 27 -33 178 -39 177 -3 -1 -14 -3 -23 -6z"/>
<path d="M2979 3990 c-25 -86 -26 -90 -8 -95 24 -8 39 1 39 23 0 9 9 37 20 61
17 37 23 42 44 37 30 -7 58 20 35 35 -8 5 -24 8 -36 6 -12 -2 -24 -1 -25 3 -2
4 -12 10 -23 14 -18 5 -23 -4 -46 -84z"/>
<path d="M3146 3984 c-3 -26 -6 -70 -6 -98 0 -40 -4 -54 -20 -63 -10 -7 -26
-10 -34 -7 -22 9 -31 -17 -11 -33 41 -30 66 -17 158 79 83 86 87 93 68 102
-18 8 -29 2 -66 -34 l-45 -44 0 66 c0 61 -7 78 -34 78 -2 0 -6 -21 -10 -46z"/>
<path d="M3480 3809 c-98 -121 -95 -116 -70 -129 18 -9 24 -7 48 21 15 18 30
36 33 42 4 5 25 -5 48 -23 l41 -33 -35 -43 c-41 -49 -41 -50 -16 -63 17 -9 28
1 88 72 104 125 98 114 72 127 -20 11 -25 8 -53 -25 l-31 -36 -38 33 -39 33
32 40 c29 37 30 40 14 52 -10 7 -20 13 -23 13 -3 -1 -35 -37 -71 -81z"/>
<path d="M1681 3801 c-34 -32 -45 -89 -15 -77 9 3 18 6 20 6 2 0 4 9 4 20 0
24 37 47 52 32 8 -8 3 -20 -15 -41 -33 -39 -41 -65 -28 -89 21 -40 82 -32 103
13 6 14 17 24 24 21 7 -3 18 2 24 9 10 12 2 26 -40 75 -60 69 -82 75 -129 31z
m104 -91 c0 -29 -29 -50 -46 -33 -9 9 -8 18 5 38 20 31 41 28 41 -5z"/>
<path d="M1496 3731 c-15 -16 -14 -19 14 -46 l30 -29 -25 -14 c-79 -41 -28
-162 69 -162 37 0 66 27 66 62 0 10 5 15 13 12 8 -3 19 1 25 9 10 11 -6 31
-82 100 -88 82 -94 85 -110 68z m98 -122 c36 -28 34 -82 -2 -87 -51 -7 -96 73
-54 97 24 14 26 14 56 -10z"/>
<path d="M3684 3606 c-37 -16 -64 -51 -64 -84 0 -95 125 -134 173 -53 32 54
11 121 -44 140 -18 6 -32 11 -33 11 -1 -1 -15 -7 -32 -14z m76 -52 c32 -38
-35 -105 -78 -78 -26 17 -26 43 -1 70 26 27 61 31 79 8z"/>
<path d="M1390 3482 c-24 -7 -40 -33 -40 -64 0 -20 -4 -26 -14 -22 -8 3 -19
-3 -24 -13 -9 -16 0 -25 64 -67 61 -40 77 -46 89 -36 23 19 19 25 -34 59 -27
18 -52 39 -55 47 -6 16 9 54 22 54 3 0 33 -16 66 -37 56 -34 60 -35 72 -18 12
17 9 22 -36 52 -58 39 -89 52 -110 45z"/>
<path d="M3838 3419 c-20 -11 -23 -47 -9 -96 11 -37 -1 -52 -25 -32 -10 8 -14
22 -10 40 3 17 0 32 -9 39 -41 34 -49 -52 -9 -100 22 -26 33 -31 63 -28 32 3
36 6 39 35 2 18 -1 48 -7 67 -5 20 -6 38 -1 41 11 7 41 -35 34 -47 -3 -4 1
-17 10 -29 l14 -21 11 21 c9 16 8 29 -2 54 -26 61 -59 80 -99 56z"/>
<path d="M1245 3254 c-29 -32 -40 -76 -25 -104 9 -18 14 -19 26 -9 9 7 13 21
10 34 -6 25 16 61 32 52 6 -4 8 -29 5 -65 -5 -53 -4 -58 20 -71 19 -10 29 -10
46 -1 24 12 45 56 37 77 -3 7 1 13 9 13 8 0 15 4 15 9 0 5 3 16 6 25 4 11 1
16 -10 16 -9 0 -43 11 -76 25 -33 14 -62 25 -65 25 -3 0 -17 -12 -30 -26z
m119 -77 c8 -12 7 -21 -6 -33 -20 -20 -38 -11 -38 20 0 39 23 46 44 13z"/>
<path d="M3873 3187 c-101 -41 -111 -49 -94 -75 7 -11 15 -11 46 2 47 20 48
20 40 -4 -6 -20 9 -59 29 -72 6 -4 30 -8 54 -8 35 0 49 6 73 29 33 33 37 65
12 101 -10 14 -18 29 -19 35 0 5 -2 16 -2 23 -3 19 -29 13 -139 -31z m127 -42
c18 -22 5 -44 -36 -61 -40 -17 -64 -7 -64 27 0 42 72 67 100 34z"/>
<path d="M1167 3065 c-4 -22 3 -29 46 -53 l51 -27 -60 -5 c-51 -4 -59 -8 -62
-27 -2 -17 8 -28 45 -50 l48 -28 -56 -3 c-49 -2 -58 -6 -63 -25 -3 -11 -4 -23
-2 -24 2 -2 45 0 97 4 91 8 94 9 97 33 2 22 -5 30 -45 50 l-48 25 55 3 c52 3
70 13 70 39 0 10 -84 68 -146 101 -19 10 -22 9 -27 -13z"/>
<path d="M4137 3012 c-12 -2 -17 -11 -15 -25 4 -24 17 -30 37 -18 20 13 2 48
-22 43z"/>
<path d="M3995 2978 c-44 -12 -81 -22 -82 -22 -7 -5 11 -46 20 -46 6 0 46 10
89 21 69 19 79 24 76 42 -4 28 -11 28 -103 5z"/>
<path d="M1846 2942 c-2 -4 -22 -55 -44 -112 -22 -58 -43 -113 -47 -122 -5
-14 -2 -18 12 -18 14 0 24 12 33 40 l13 40 54 0 c53 0 53 0 69 -40 11 -28 22
-40 36 -40 12 0 18 5 15 13 -90 223 -101 247 -118 247 -10 0 -20 -3 -23 -8z
m49 -102 l14 -40 -39 0 c-22 0 -40 3 -40 6 0 4 8 28 17 55 19 53 23 51 48 -21z"/>
<path d="M2592 2933 c2 -10 10 -18 18 -18 8 0 16 8 18 18 2 12 -3 17 -18 17
-15 0 -20 -5 -18 -17z"/>
<path d="M2852 2933 c2 -10 10 -18 18 -18 8 0 16 8 18 18 2 12 -3 17 -18 17
-15 0 -20 -5 -18 -17z"/>
<path d="M3032 2933 c2 -10 10 -18 18 -18 8 0 16 8 18 18 2 12 -3 17 -18 17
-15 0 -20 -5 -18 -17z"/>
<path d="M2947 2933 c-4 -3 -7 -17 -7 -30 0 -12 -4 -23 -10 -23 -5 0 -10 -7
-10 -15 0 -8 5 -15 10 -15 6 0 10 -29 10 -68 0 -73 10 -92 47 -92 28 0 30 16
3 30 -17 9 -20 21 -20 70 0 47 3 60 15 60 8 0 15 7 15 15 0 8 -7 15 -15 15
-10 0 -15 10 -15 30 0 29 -9 38 -23 23z"/>
<path d="M4080 2885 c0 -8 -7 -15 -15 -15 -7 0 -37 -5 -64 -11 -54 -11 -67
-28 -56 -72 5 -18 12 -23 26 -20 11 3 18 13 17 21 -2 12 9 19 45 25 41 8 50 7
61 -8 14 -19 36 -13 36 10 0 7 13 16 30 20 26 6 28 9 20 26 -6 11 -21 19 -35
19 -14 0 -25 5 -25 10 0 6 -9 10 -20 10 -11 0 -20 -7 -20 -15z"/>
<path d="M2032 2860 c-33 -31 -33 -111 1 -147 36 -40 117 -23 130 27 4 15 0
20 -14 20 -10 0 -19 -7 -19 -15 0 -8 -9 -19 -21 -25 -16 -9 -26 -8 -45 5 -19
12 -24 24 -24 60 0 36 5 48 24 60 19 13 29 14 45 5 12 -6 21 -15 21 -20 0 -6
7 -10 15 -10 21 0 19 23 -3 43 -26 24 -83 22 -110 -3z"/>
<path d="M2217 2868 c-43 -33 -44 -119 -1 -159 18 -17 31 -21 59 -16 l35 6 0
-40 c0 -28 4 -39 15 -39 13 0 15 21 15 130 0 72 -4 130 -9 130 -5 0 -11 -6
-14 -12 -4 -10 -7 -10 -18 0 -7 6 -25 12 -39 12 -14 0 -34 -6 -43 -12z m77
-27 c27 -30 25 -89 -3 -113 -21 -16 -26 -17 -45 -5 -28 19 -34 91 -10 118 22
24 36 24 58 0z"/>
<path d="M2390 2813 c0 -87 15 -117 58 -121 18 -2 40 3 49 10 13 10 17 10 20
1 3 -7 9 -13 14 -13 5 0 9 43 9 95 0 78 -3 95 -15 95 -12 0 -15 -14 -15 -68 0
-73 -10 -92 -47 -92 -31 0 -43 28 -43 99 0 48 -3 61 -15 61 -12 0 -15 -14 -15
-67z"/>
<path d="M2590 2786 c0 -90 1 -96 20 -96 20 0 21 5 18 92 -3 79 -6 93 -20 96
-16 3 -18 -6 -18 -92z"/>
<path d="M2686 2867 c-12 -9 -17 -23 -14 -42 3 -26 10 -32 56 -49 55 -20 65
-38 31 -57 -18 -9 -27 -7 -50 10 -34 26 -50 27 -42 4 19 -57 126 -59 145 -3
11 33 -10 59 -57 71 -49 12 -68 35 -44 50 21 13 36 11 53 -7 9 -8 23 -14 31
-12 14 3 14 6 0 26 -19 25 -79 31 -109 9z"/>
<path d="M2850 2786 c0 -90 1 -96 20 -96 20 0 21 5 18 92 -3 79 -6 93 -20 96
-16 3 -18 -6 -18 -92z"/>
<path d="M3030 2786 c0 -90 1 -96 20 -96 20 0 21 5 18 92 -3 79 -6 93 -20 96
-16 3 -18 -6 -18 -92z"/>
<path d="M3138 2869 c-25 -14 -40 -78 -28 -118 12 -42 36 -60 80 -60 44 0 68
18 80 60 20 67 -18 129 -79 129 -20 0 -44 -5 -53 -11z m80 -25 c29 -20 31 -85
2 -114 -24 -24 -29 -24 -58 -4 -17 12 -22 25 -22 59 0 34 5 47 22 59 12 9 25
16 28 16 3 0 16 -7 28 -16z"/>
<path d="M3310 2785 c0 -84 2 -95 18 -95 14 0 17 10 18 66 0 57 3 69 23 85 17
14 27 16 42 9 16 -9 19 -22 19 -85 0 -65 2 -75 18 -75 15 0 17 9 14 82 -2 46
-8 89 -14 95 -13 17 -70 17 -87 1 -11 -10 -14 -10 -18 0 -3 6 -11 12 -19 12
-11 0 -14 -20 -14 -95z"/>
<path d="M1228 2730 c-32 -21 -58 -34 -58 -29 0 20 -41 49 -70 49 -54 0 -70
-28 -70 -125 l0 -85 125 0 125 0 0 25 c0 23 -3 25 -50 25 -43 0 -50 3 -50 20
0 17 48 61 98 89 8 5 12 20 10 39 l-3 31 -57 -39z m-90 -93 c-3 -39 -5 -42
-35 -45 -32 -3 -33 -2 -33 37 0 49 22 76 51 60 16 -8 19 -19 17 -52z"/>
<path d="M3964 2715 c-11 -18 -14 -33 -8 -52 4 -16 7 -43 5 -62 -3 -31 -1 -33
21 -28 12 4 46 7 74 7 70 0 89 17 88 76 -1 37 -6 52 -25 67 -22 18 -24 18 -27
2 -2 -10 2 -28 8 -41 14 -25 6 -58 -12 -52 -7 3 -16 20 -21 39 -18 69 -71 92
-103 44z m66 -44 c15 -29 12 -41 -10 -41 -23 0 -35 22 -26 45 8 21 23 19 36
-4z"/>
<path d="M3958 2497 c-5 -24 -2 -25 59 -31 34 -3 92 -9 128 -12 64 -6 65 -6
65 19 0 25 -2 25 -87 32 -49 3 -104 8 -124 11 -33 5 -37 3 -41 -19z"/>
<path d="M1601 2348 c-52 -132 -101 -260 -101 -263 0 -3 13 -5 29 -5 25 0 31
6 41 35 11 35 12 35 69 35 56 0 57 -1 70 -35 10 -29 17 -35 42 -35 16 0 29 4
29 8 0 4 -24 68 -54 142 -52 130 -55 135 -85 138 -25 3 -33 -1 -40 -20z m55
-93 c20 -49 18 -55 -20 -55 l-34 0 17 45 c9 25 17 45 19 45 2 0 10 -16 18 -35z"/>
<path d="M1820 2225 l0 -145 24 0 c23 0 25 4 28 53 l3 52 59 6 c74 8 99 31 99
90 0 34 -6 47 -27 66 -23 20 -38 23 -107 23 l-79 0 0 -145z m145 79 c26 -26
-2 -58 -54 -62 -41 -3 -41 -3 -41 31 0 18 3 37 7 40 13 13 72 7 88 -9z"/>
<path d="M2080 2226 l0 -146 30 0 c30 0 30 1 30 55 l0 55 49 0 c68 0 111 35
111 90 0 22 -8 47 -19 61 -17 21 -29 24 -110 27 l-91 4 0 -146z m141 84 c21
-12 25 -40 7 -58 -7 -7 -29 -12 -50 -12 -38 0 -38 0 -38 40 0 38 2 40 31 40
17 0 39 -5 50 -10z"/>
<path d="M2350 2225 l0 -145 30 0 30 0 0 60 c0 52 2 60 19 60 20 0 57 -38 88
-90 14 -25 24 -30 55 -30 l38 0 -27 43 c-15 23 -36 52 -47 65 -11 12 -15 22
-10 22 26 0 54 42 54 80 0 62 -31 80 -141 80 l-89 0 0 -145z m158 86 c8 -4 12
-19 10 -32 -3 -21 -9 -24 -55 -27 l-53 -3 0 35 c0 36 0 36 43 36 23 0 48 -4
55 -9z"/>
<path d="M2672 2336 c-37 -34 -37 -35 -37 -111 0 -76 0 -77 37 -111 33 -29 45
-34 88 -34 97 0 140 45 140 145 0 100 -43 145 -140 145 -43 0 -55 -5 -88 -34z
m145 -38 c18 -16 23 -32 23 -68 0 -63 -28 -100 -75 -100 -45 0 -75 38 -75 95
0 83 72 125 127 73z"/>
<path d="M2922 2358 c3 -7 27 -73 53 -145 47 -132 48 -133 79 -133 31 0 31 0
82 145 l51 145 -31 0 c-31 0 -32 -2 -65 -101 -18 -55 -34 -99 -36 -97 -2 2
-19 46 -38 98 -33 92 -35 95 -67 98 -24 3 -31 0 -28 -10z"/>
<path d="M3220 2225 l0 -145 105 0 c105 0 105 0 105 25 0 23 -3 24 -77 27
l-78 3 0 35 0 35 73 3 c69 3 72 4 72 27 0 24 -2 25 -76 25 l-75 0 3 28 c3 27
4 27 81 30 74 3 77 4 77 27 0 25 0 25 -105 25 l-105 0 0 -145z"/>
<path d="M3480 2225 l0 -145 70 0 c90 0 132 17 153 63 37 78 12 188 -49 213
-19 8 -65 14 -104 14 l-70 0 0 -145z m160 73 c15 -16 20 -35 20 -75 0 -67 -22
-93 -80 -93 l-40 0 0 95 0 95 40 0 c27 0 45 -6 60 -22z"/>
<path d="M3016 1331 c-3 -4 -1 -23 4 -42 6 -19 10 -39 10 -45 0 -10 -88 -40
-95 -32 -1 2 -6 21 -12 43 -9 39 -34 58 -53 38 -5 -4 4 -57 21 -118 16 -60 29
-113 29 -117 0 -5 12 -8 26 -8 25 0 26 2 20 38 -3 20 -9 46 -12 58 -5 18 1 23
40 33 25 6 47 11 49 11 3 0 10 -22 17 -50 10 -43 15 -50 36 -50 13 0 24 6 24
13 0 10 -40 168 -56 220 -6 18 -39 24 -48 8z"/>
<path d="M2209 1204 c-22 -103 -24 -126 -13 -131 27 -10 42 6 48 51 11 71 47
56 82 -34 9 -25 18 -46 18 -47 1 -1 13 -4 29 -8 34 -9 35 3 3 71 l-24 52 29 6
c53 10 63 90 16 120 -12 8 -49 20 -82 26 -33 7 -64 14 -70 16 -6 3 -21 -48
-36 -122z m130 55 c24 -9 31 -16 29 -33 -3 -24 -26 -31 -72 -22 -29 6 -32 9
-28 36 5 33 19 37 71 19z"/>
<path d="M2528 1273 c-1 -4 -2 -63 0 -130 l3 -123 25 0 c25 0 26 0 22 80 -3
80 4 104 16 53 27 -111 36 -133 61 -133 25 0 26 1 45 90 21 92 29 91 30 -2 0
-87 0 -88 25 -88 24 0 25 2 25 69 0 37 -3 96 -6 130 l-7 61 -36 0 -37 0 -18
-81 c-10 -44 -21 -77 -24 -74 -4 4 -16 39 -28 78 -21 71 -22 72 -57 75 -19 2
-37 -1 -39 -5z"/>
</g>
</svg>
